<svg xmlns="http://www.w3.org/2000/svg" viewBox="0 0 64 64">
  <defs>
    <linearGradient id="bg" x1="12" y1="8" x2="54" y2="56" gradientUnits="userSpaceOnUse">
      <stop offset="0" stop-color="#0e0e10" />
      <stop offset="1" stop-color="#282732" />
    </linearGradient>
    <linearGradient id="accent" x1="16" y1="14" x2="48" y2="50" gradientUnits="userSpaceOnUse">
      <stop offset="0" stop-color="#d9ecff" />
      <stop offset="1" stop-color="#839cb5" />
    </linearGradient>
  </defs>
  <rect width="64" height="64" rx="18" fill="url(#bg)" />
  <path
    d="M20 17.5a2.5 2.5 0 0 1 2.5 2.5v22h11.5a2.5 2.5 0 1 1 0 5H20a2.5 2.5 0 0 1-2.5-2.5V20a2.5 2.5 0 0 1 2.5-2.5Zm21.5 0a2.5 2.5 0 0 1 2.5 2.5v1.92l3.23-2.73a2.5 2.5 0 1 1 3.22 3.82L45.7 27l4.75 4a2.5 2.5 0 1 1-3.22 3.82L44 32.08V44a2.5 2.5 0 1 1-5 0V20a2.5 2.5 0 0 1 2.5-2.5Z"
    fill="url(#accent)"
  />
  <circle cx="49" cy="15" r="3" fill="#d9ecff" opacity=".9" />
</svg>
